<svg width="30" height="28" viewBox="0 0 30 28" fill="none" xmlns="http://www.w3.org/2000/svg">
<path d="M14.9983 13.9417C14.9983 17.5573 13.5223 21.0248 10.8949 23.5814C8.26759 26.1381 4.70415 27.5743 0.988525 27.5743V13.9417H14.9983Z" fill="#F9B24E"/>
<path d="M29.0115 13.9417C29.0115 15.7319 28.6491 17.5047 27.9451 19.1587C27.241 20.8127 26.209 22.3155 24.9081 23.5814C23.6072 24.8473 22.0628 25.8515 20.363 26.5366C18.6633 27.2217 16.8415 27.5743 15.0017 27.5743V13.9417H29.0115Z" fill="#A8BBC6"/>
<path d="M14.9983 13.9316C14.9978 12.1409 15.36 10.3677 16.0641 8.71325C16.7683 7.05884 17.8005 5.55566 19.1019 4.28962C20.4033 3.02357 21.9483 2.01948 23.6486 1.33472C25.349 0.649971 27.1713 0.297979 29.0115 0.29886V13.9316H14.9983Z" fill="#45525B"/>
<path d="M0.988526 13.9316C0.988073 12.1412 1.35012 10.3682 2.05402 8.71403C2.75792 7.05983 3.78985 5.5568 5.09087 4.2908C6.39189 3.0248 7.9365 2.02064 9.63645 1.33569C11.3364 0.650735 13.1584 0.298418 14.9983 0.298859V13.9316H0.988526Z" fill="#FE7E02"/>
</svg>
